<?xml version="1.0" encoding="utf-8"?>
<!-- Generator: Adobe Illustrator 26.2.1, SVG Export Plug-In . SVG Version: 6.00 Build 0)  -->
<svg version="1.1" id="Concordium-logo-square-dark_1_"
	 xmlns="http://www.w3.org/2000/svg" xmlns:xlink="http://www.w3.org/1999/xlink" height="38" width="38" viewBox="0 0 550 550"
	 style="enable-background:new 0 0 550 550;" xml:space="preserve" preserveAspectRatio="xMidYMid meet">
<style type="text/css">
	.st0{fill:#181817;}
</style>
<g id="Concordium-logo-square-dark">
	<g id="Concordium_Square-dark" transform="translate(-173.000000, 15.000000)">
		<path id="Shape" class="st0" d="M682.7,370.1h-92.3C613.9,339.6,628,301.5,628,260c0-41.5-14.1-79.7-37.6-110.2h92.3
			c15.6,33.5,24.4,70.8,24.4,110.2C707.1,299.4,698.3,336.7,682.7,370.1z M447.9,370.1c-60.7,0-109.8-49.3-109.8-110.2
			c0-60.8,49.2-110.2,109.8-110.2c60.7,0,109.8,49.3,109.8,110.2C557.7,320.8,508.6,370.1,447.9,370.1z M267.8,260
			c0,99.8,80.6,180.7,180.1,180.7c26.7,0,51.9-6,74.7-16.4V509c-23.7,7.1-48.7,11-74.7,11c-143.1,0-259.2-116.4-259.2-260
			c0-143.6,116.1-260,259.2-260c26,0,51,3.9,74.7,11v84.7c-22.8-10.5-48-16.4-74.7-16.4C348.4,79.3,267.8,160.2,267.8,260z"/>
	</g>
</g>
</svg>
