<?xml version="1.0" encoding="utf-8"?>
<!-- Generator: Adobe Illustrator 26.2.1, SVG Export Plug-In . SVG Version: 6.00 Build 0)  -->
<svg version="1.1" id="Concordium-logo-square-dark_1_"
	 xmlns="http://www.w3.org/2000/svg" xmlns:xlink="http://www.w3.org/1999/xlink" x="0px" y="0px" viewBox="0 0 1000 1000"
	 style="enable-background:new 0 0 1000 1000;" xml:space="preserve">
<style type="text/css">
	.st0{fill:#181817;}
</style>
<g id="Concordium-logo-square-dark">
	<g id="Concordium_Square-dark" transform="translate(50.000000, 98.000000)">
		<path id="Shape" class="st0" d="M682.7,370.1h-92.3C613.9,339.6,628,301.5,628,260c0-41.5-14.1-79.7-37.6-110.2h92.3
			c15.6,33.5,24.4,70.8,24.4,110.2C707.1,299.4,698.3,336.7,682.7,370.1z M447.9,370.1c-60.7,0-109.8-49.3-109.8-110.2
			c0-60.8,49.2-110.2,109.8-110.2c60.7,0,109.8,49.3,109.8,110.2C557.7,320.8,508.6,370.1,447.9,370.1z M267.8,260
			c0,99.8,80.6,180.7,180.1,180.7c26.7,0,51.9-6,74.7-16.4V509c-23.7,7.1-48.7,11-74.7,11c-143.1,0-259.2-116.4-259.2-260
			c0-143.6,116.1-260,259.2-260c26,0,51,3.9,74.7,11v84.7c-22.8-10.5-48-16.4-74.7-16.4C348.4,79.3,267.8,160.2,267.8,260z"/>
		<path id="Shape_1_" class="st0" d="M557.7,803.7c-1.9,0-3.8-0.7-5.1-2.2l-34.3-34.9c-2.1-2.1-2.6-5.2-1.4-7.8
			c1.2-2.6,3.6-4.3,6.4-4.3h14.6c6.3,0,11.8-4.9,11.8-10.4c0-5.4-5.6-10.1-11.9-10.1H510c0,0-0.1,0.2-0.1,0.5v62.1
			c0,3.9-3.2,7.1-7.1,7.1c-3.9,0-7-3.2-7-7.1v-62.1c0-8,6.4-14.5,14.2-14.5h27.7c14.2,0,25.8,10.8,25.8,24.1
			c0,12.6-10.5,23.4-23.5,24.5l22.5,23c1.5,1.4,2.3,3.4,2.2,5.4c-0.1,1.9-1,3.7-2.4,5C561,803.1,559.4,803.7,557.7,803.7z
			 M753.9,803.7c-12.2,0-21.7-3.4-28.3-10.1c-6.7-6.8-10.1-16.7-10.1-29.5v-37.6c0-3.9,3.1-7.1,6.9-7.1c3.9,0,7.1,3.2,7.1,7.1v37.6
			c0,17.5,7.6,25.3,24.8,25.3c17.4,0,24.8-7.6,24.9-25.4v-37.5c0-3.9,3.1-7.1,7-7.1s7,3.2,7,7.1v37.6c0,25.5-13.8,39.5-38.9,39.5
			C754.1,803.7,754,803.7,753.9,803.7z M893,803.7c-3.9,0-7.1-3.2-7.1-7.1v-62.6c-0.2-0.2-0.3-0.1-0.4,0l-16.7,27.6
			c-2.5,4.4-7.1,7.1-12.3,7.1c-5,0-9.4-2.6-12.2-7.1l-16.7-27.5c-0.1-0.2-0.3-0.3-0.3-0.3l-0.1,62.8c0,3.9-3.2,7.1-7.1,7.1
			c-3.8,0-7-3.2-7-7.1v-62.6c0-8,6.4-14.5,14.2-14.5c5,0,9.5,2.7,12.3,7.2l16.7,27.5c0.1,0.2,0.2,0.3,0.3,0.3
			c-0.1,0,0.2-0.2,0.2-0.4l16.6-27.5c2.8-4.6,7.3-7.2,12.3-7.2c7.8,0,14.2,6.5,14.2,14.5v62.6C900,800.5,896.9,803.7,893,803.7z
			 M687.1,803.7c-3.8,0-7-3.2-7-7.1v-69.9c0-4,3.1-7.2,7-7.2c3.9,0,7.1,3.2,7.1,7.2v69.9C694.2,800.5,691,803.7,687.1,803.7z
			 M433.4,803.7c-26.7,0-44.6-16.9-44.6-42.1c0-24.8,18.3-42.1,44.6-42.1c26.7,0,44.6,16.9,44.6,42.1
			C478,786.7,460.1,803.7,433.4,803.7z M433.4,733.8c-19.1,0-30.5,10.4-30.5,27.8c0,17.5,11.4,27.9,30.5,27.9
			c19.1,0,30.6-10.4,30.6-27.9C463.9,744.2,452.5,733.8,433.4,733.8z M340.1,803.7c-26.7,0-44.6-16.9-44.6-42.1
			c0-24.8,18.3-42.1,44.6-42.1c12.9,0,24,3.9,32,11.2c1.4,1.3,2.2,3,2.3,4.9c0.1,1.9-0.5,3.7-1.8,5.2c-1.2,1.4-3,2.2-4.9,2.4
			c-1.9,0.1-3.7-0.5-5.1-1.8c-5.4-4.9-13.2-7.5-22.6-7.5c-19.1,0-30.5,10.4-30.5,27.8c0,17.4,11.4,27.8,30.5,27.8
			c9.4,0,17.2-2.6,22.6-7.5c1.4-1.3,3.2-1.9,5.1-1.8c1.9,0.1,3.6,0.9,4.9,2.4c2.6,2.9,2.3,7.4-0.6,10
			C364.2,799.8,353.1,803.7,340.1,803.7z M263.9,803.7c-5,0-9.6-2.6-12.2-7L214.8,734c-0.1-0.2-0.2-0.3-0.3-0.3l-0.1,62.8
			c0,3.9-3.1,7.1-7,7.1c-3.9,0-7.1-3.2-7.1-7.1v-62.6c0-8,6.4-14.5,14.2-14.5c5,0,9.6,2.7,12.3,7.2l36.9,62.6c0,0.1,0.1,0.1,0.2,0.1
			c0.1,0,0.2-0.1,0.2-0.3v-62.5c0-4,3.1-7.2,7-7.2c4,0,7.1,3.2,7.1,7.2v62.5C278.3,797.2,271.8,803.7,263.9,803.7z M137.9,803.7
			c-26.7,0-44.6-16.9-44.6-42.1c0-24.8,18.3-42.1,44.6-42.1c26.7,0,44.6,16.9,44.6,42.1C182.5,786.7,164.6,803.7,137.9,803.7z
			 M137.9,733.8c-19.1,0-30.5,10.4-30.5,27.8c0,17.5,11.4,27.9,30.5,27.9c19.1,0,30.5-10.4,30.5-27.9
			C168.5,744.2,157,733.8,137.9,733.8z M44.6,803.7C17.9,803.7,0,786.7,0,761.6c0-24.8,18.4-42.1,44.6-42.1c12.9,0,24,3.9,32,11.2
			c1.4,1.3,2.2,3,2.3,4.9c0.1,1.9-0.5,3.7-1.8,5.2c-1.2,1.4-3,2.2-4.8,2.4c-1.9,0.1-3.7-0.5-5.1-1.8c-5.3-4.9-13.2-7.5-22.6-7.5
			c-19.1,0-30.5,10.4-30.5,27.8c0,17.4,11.4,27.8,30.5,27.8c9.4,0,17.3-2.6,22.6-7.5c1.4-1.3,3.2-1.9,5.1-1.8
			c1.9,0.1,3.6,0.9,4.8,2.4c2.6,2.9,2.3,7.4-0.5,10C68.8,799.8,57.7,803.7,44.6,803.7z M617.5,803.2c-0.3,0-0.5,0-0.8,0h-20.1
			c-7.8,0-14.2-6.5-14.2-14.5v-54.3c0-8,6.4-14.5,14.2-14.5h20.1c15.1-0.2,26.7,3.5,34.2,11c7,7,10.5,17.3,10.5,30.5
			c0,13.2-3.5,23.5-10.4,30.5C643.5,799.6,632.5,803.2,617.5,803.2z M617.2,734.1c-0.1,0-0.3,0-0.4,0h-20.1c0,0-0.2,0.2-0.2,0.4
			v54.3c0,0.1,0.1,0.3,0.2,0.4l20.1,0c11.5,0.1,19.4-2.2,24.1-6.9c4.3-4.3,6.4-11.1,6.4-20.7c0-9.4-2.1-16.1-6.3-20.4
			C636.3,736.4,628.5,734.1,617.2,734.1z"/>
	</g>
</g>
</svg>
